<svg width="24" height="24" viewBox="0 0 24 24" fill="none" xmlns="http://www.w3.org/2000/svg">
<path d="M15.0384 13.224H8.96161C6.22578 13.224 4 14.1666 4 15.3252V19.5796C4 19.8117 4.44427 19.9999 4.99232 19.9999H19.0077C19.5557 19.9999 20 19.8117 20 19.5796V15.3252C20 14.1666 17.7742 13.224 15.0384 13.224Z" fill="#062D4E"/>
<path d="M11.9998 4C9.95768 4 8.29626 5.61333 8.29626 7.59642C8.29626 8.94154 9.06081 10.1163 10.1899 10.7331C10.7254 11.0256 11.3428 11.1928 11.9998 11.1928C12.6568 11.1928 13.2743 11.0256 13.8098 10.7331C14.9389 10.1163 15.7034 8.9415 15.7034 7.59642C15.7034 5.61337 14.042 4 11.9998 4Z" fill="#062D4E"/>
</svg>
