<svg width="24" height="24" viewBox="0 0 24 24" fill="none" xmlns="http://www.w3.org/2000/svg">
<path d="M16.3048 2.03814C15.8958 2.17044 15.6722 2.60779 15.8049 3.01505L16.1338 4.02321C14.8511 3.40562 13.4404 3.08216 12 3.08216C6.76167 3.08216 2.5 7.32534 2.5 12.5411C2.5 17.7568 6.76167 22 12 22C17.2383 22 21.5 17.7568 21.5 12.5411C21.5 12.1129 21.1513 11.7658 20.7213 11.7658C20.2914 11.7658 19.9426 12.1129 19.9426 12.5411C19.9426 16.9017 16.3797 20.4494 12 20.4494C7.62041 20.4494 4.05738 16.9017 4.05738 12.5411C4.05738 8.18036 7.62041 4.6328 12 4.6328C13.2068 4.6328 14.3882 4.90391 15.4616 5.42195L14.3966 5.76638C13.9877 5.89868 13.7639 6.33615 13.8967 6.74329C14.0296 7.15055 14.4689 7.37347 14.8779 7.24117L17.7041 6.32691C18.0332 6.22053 18.2425 5.91661 18.2425 5.58973C18.2425 5.5104 18.2301 5.42958 18.2042 5.35L17.2861 2.53596C17.1532 2.12876 16.7139 1.90584 16.3048 2.03814Z" fill="#D4D9E6"/>
</svg>
