<svg width="25" height="24" viewBox="0 0 25 24" fill="none" xmlns="http://www.w3.org/2000/svg">
<path d="M19.608 5.96794C18.7539 5.02134 17.5819 4.5 16.3077 4.5C15.3553 4.5 14.483 4.80769 13.7151 5.41444C13.3276 5.72071 12.9765 6.09542 12.667 6.53277C12.3576 6.09555 12.0063 5.72071 11.6187 5.41444C10.851 4.80769 9.97872 4.5 9.02627 4.5C7.75206 4.5 6.57995 5.02134 5.72582 5.96794C4.88189 6.90348 4.41699 8.18157 4.41699 9.56693C4.41699 10.9928 4.93702 12.298 6.0535 13.6747C7.05227 14.906 8.48774 16.1561 10.15 17.6036C10.7177 18.0979 11.3611 18.6582 12.0291 19.2551C12.2056 19.413 12.4321 19.5 12.667 19.5C12.9018 19.5 13.1284 19.413 13.3046 19.2553C13.9727 18.6584 14.6164 18.0978 15.1843 17.6032C16.8464 16.156 18.2818 14.906 19.2806 13.6745C20.3971 12.298 20.917 10.9928 20.917 9.5668C20.917 8.18157 20.4521 6.90348 19.608 5.96794Z" fill="white"/>
</svg>
