<svg width="24" height="24" viewBox="0 0 24 24" fill="none" xmlns="http://www.w3.org/2000/svg">
<path d="M18.2857 4H5.71428C4.76751 4 4 4.76751 4 5.71428V18.2857C4 19.2325 4.76751 20 5.71428 20H18.2857C19.2325 20 20 19.2325 20 18.2857V5.71428C20 4.76751 19.2325 4 18.2857 4ZM9.14285 16.5714H7.42857C7.11297 16.5714 6.85713 16.3156 6.85713 16C6.85713 15.6844 7.11297 15.4286 7.42857 15.4286H9.14285C9.45846 15.4286 9.71429 15.6844 9.71429 16C9.71429 16.3156 9.45846 16.5714 9.14285 16.5714ZM9.14285 12.5714H7.42857C7.11297 12.5714 6.85713 12.3156 6.85713 12C6.85713 11.6844 7.11297 11.4285 7.42857 11.4285H9.14285C9.45846 11.4285 9.71429 11.6844 9.71429 12C9.71429 12.3156 9.45846 12.5714 9.14285 12.5714ZM9.14285 8.57141H7.42857C7.11297 8.57141 6.85713 8.31558 6.85713 7.99997C6.85713 7.68437 7.11297 7.42857 7.42857 7.42857H9.14285C9.45846 7.42857 9.71429 7.68441 9.71429 8.00001C9.71429 8.31561 9.45846 8.57141 9.14285 8.57141ZM16.5714 16.5714H11.4286C11.113 16.5714 10.8571 16.3156 10.8571 16C10.8571 15.6844 11.113 15.4286 11.4286 15.4286H16.5714C16.887 15.4286 17.1429 15.6844 17.1429 16C17.1429 16.3156 16.887 16.5714 16.5714 16.5714ZM16.5714 12.5714H11.4286C11.113 12.5714 10.8571 12.3156 10.8571 12C10.8571 11.6844 11.113 11.4285 11.4286 11.4285H16.5714C16.887 11.4285 17.1429 11.6844 17.1429 12C17.1429 12.3156 16.887 12.5714 16.5714 12.5714ZM16.5714 8.57141H11.4286C11.113 8.57141 10.8571 8.31558 10.8571 7.99997C10.8571 7.68437 11.113 7.42854 11.4286 7.42854H16.5714C16.887 7.42854 17.1429 7.68437 17.1429 7.99997C17.1429 8.31558 16.887 8.57141 16.5714 8.57141Z" fill="black"/>
</svg>
