<svg width="16" height="16" viewBox="0 0 16 16" fill="none" xmlns="http://www.w3.org/2000/svg">
<path d="M8 16C12.4183 16 16 12.4183 16 8C16 3.58173 12.4183 0 8 0C3.58173 0 0 3.58173 0 8C0 12.4183 3.58173 16 8 16Z" fill="#37AEE2"/>
<path d="M3.62083 7.75608C4.43925 7.2798 5.35283 6.88229 6.20643 6.48274C7.67497 5.82832 9.14933 5.18524 10.6386 4.58654C10.9283 4.48452 11.449 4.38476 11.5 4.83842C11.4721 5.48058 11.3571 6.11898 11.2782 6.75738C11.078 8.16127 10.8466 9.56035 10.621 10.9596C10.5432 11.4257 9.99057 11.667 9.63696 11.3687C8.78714 10.7623 7.9308 10.1617 7.09184 9.54118C6.81701 9.24615 7.07185 8.82247 7.3173 8.61179C8.01723 7.88303 8.75952 7.26386 9.42287 6.49744C9.60181 6.04091 9.07311 6.42566 8.89872 6.54355C7.94051 7.24118 7.00575 7.98141 5.9955 8.59453C5.47946 8.89465 4.87801 8.63817 4.36221 8.4707C3.89972 8.2684 3.22201 8.06459 3.62078 7.75611L3.62083 7.75608Z" fill="white"/>
</svg>
