<svg width="16" height="16" viewBox="0 0 16 16" fill="none" xmlns="http://www.w3.org/2000/svg">
<path d="M7.99996 0.666748C3.94987 0.666748 0.666626 3.94999 0.666626 8.00008C0.666626 12.0502 3.94987 15.3334 7.99996 15.3334C12.05 15.3334 15.3333 12.0502 15.3333 8.00008C15.3333 3.94999 12.05 0.666748 7.99996 0.666748ZM7.02327 5.75776C6.77507 6.02063 6.66663 6.3292 6.66663 6.53341C6.66663 6.9016 6.36815 7.20008 5.99996 7.20008C5.63177 7.20008 5.33329 6.9016 5.33329 6.53341C5.33329 5.93763 5.6096 5.31286 6.05378 4.84241C6.51013 4.35906 7.17947 4.00008 7.99996 4.00008C8.78402 4.00008 9.46217 4.28794 9.94279 4.78961C10.4192 5.28692 10.6666 5.95744 10.6666 6.66675C10.6666 7.43089 10.3214 8.08585 9.86302 8.57849C9.40635 9.06928 8.80852 9.43329 8.21078 9.63254C7.86148 9.74897 7.48394 9.56019 7.3675 9.2109C7.25107 8.8616 7.43985 8.48406 7.78914 8.36763C8.1914 8.23354 8.59356 7.98547 8.88689 7.67022C9.17851 7.35681 9.33329 7.01178 9.33329 6.66675C9.33329 6.26688 9.19593 5.9374 8.97999 5.712C8.76823 5.49097 8.44638 5.33341 7.99996 5.33341C7.58996 5.33341 7.2593 5.50777 7.02327 5.75776ZM8.66663 11.3334C8.66663 11.7016 8.36815 12.0001 7.99996 12.0001C7.63177 12.0001 7.33329 11.7016 7.33329 11.3334C7.33329 10.9652 7.63177 10.6667 7.99996 10.6667C8.36815 10.6667 8.66663 10.9652 8.66663 11.3334Z" fill="#051523"/>
</svg>
