<svg width="24" height="24" viewBox="0 0 24 24" fill="none" xmlns="http://www.w3.org/2000/svg">
<path d="M19.5702 10.9592C19.5698 10.9589 19.5695 10.9585 19.5691 10.9581L13.0417 4.43164C12.7635 4.15332 12.3936 4 12.0001 4C11.6066 4 11.2367 4.1532 10.9584 4.43152L4.43439 10.9547C4.43219 10.9569 4.42999 10.9592 4.42779 10.9614C3.85645 11.536 3.85742 12.4683 4.4306 13.0414C4.69247 13.3033 5.03833 13.4551 5.40812 13.4709C5.42314 13.4724 5.43827 13.4731 5.45353 13.4731H5.71369V18.2762C5.71369 19.2267 6.48709 20 7.43787 20H9.99159C10.2504 20 10.4604 19.7902 10.4604 19.5312V15.7656C10.4604 15.3319 10.8132 14.9791 11.247 14.9791H12.7532C13.187 14.9791 13.5398 15.3319 13.5398 15.7656V19.5312C13.5398 19.7902 13.7497 20 14.0086 20H16.5623C17.5131 20 18.2865 19.2267 18.2865 18.2762V13.4731H18.5277C18.9211 13.4731 19.291 13.3199 19.5695 13.0416C20.1433 12.4675 20.1435 11.5337 19.5702 10.9592Z" fill="#757575"/>
</svg>
