<svg width="24" height="24" viewBox="0 0 24 24" fill="none" xmlns="http://www.w3.org/2000/svg">
<path d="M11.8328 4.57898C5.18006 5.82021 3.36217 6.17183 3.26723 6.23161C3.12658 6.316 3 6.55158 3 6.72036C3 7.01573 3.27075 7.28648 3.5626 7.28648C3.77357 7.28648 20.5284 4.17462 20.6761 4.10781C20.8413 4.03045 20.9749 3.83354 20.9925 3.63663C21.0242 3.30611 20.7323 2.98965 20.4088 3.0002C20.3385 3.00371 16.4812 3.71399 11.8328 4.57898Z" fill="white"/>
<path d="M11.8961 7.5008C2.49367 8.59435 3.23559 8.48534 3.07736 8.79829C2.98242 8.98817 2.97891 9.12178 3.06681 9.31166C3.1512 9.49802 3.31646 9.61405 3.52392 9.63164C3.77709 9.65273 20.5495 7.69068 20.6796 7.62387C20.9152 7.50432 21.0382 7.24763 20.989 6.98392C20.9433 6.7413 20.6374 6.50571 20.3877 6.51626C20.3491 6.51977 16.5269 6.9593 11.8961 7.5008Z" fill="white"/>
<path d="M6.76237 10.4895C5.16952 10.6935 3.86148 11.3862 3.30592 12.3215C3.23208 12.441 3.13714 12.645 3.09494 12.7716C3.01759 12.9966 3.01759 13.0212 3.00704 15.6056C2.99649 18.5241 2.99649 18.503 3.23559 18.9847C3.48876 19.4911 4.09355 20.0361 4.77922 20.3772C5.3383 20.655 6.18219 20.88 6.96983 20.9609C8.73849 21.1437 10.6443 20.6268 11.5866 19.7056C11.8117 19.484 11.773 19.4805 12.093 19.7759C13.0388 20.6444 14.9235 21.1367 16.6465 20.9644C18.6472 20.7604 20.1486 19.8427 20.5354 18.5909C20.5952 18.394 20.5987 18.2006 20.5987 15.69V13.0001L20.5178 12.7716C20.0924 11.5796 18.7035 10.7216 16.8188 10.486C16.3933 10.4333 15.3842 10.4438 14.9341 10.5001C13.721 10.6618 12.6907 11.0943 12.0191 11.7202L11.8011 11.9242L11.6816 11.7976C11.2209 11.3123 10.2434 10.8236 9.31163 10.6091C8.66816 10.4614 7.42693 10.4052 6.76237 10.4895ZM8.76662 11.6991C9.83555 11.8925 10.6654 12.3145 11.0276 12.8524C11.2737 13.2146 11.2737 13.5451 11.024 13.9003C10.4825 14.6739 8.99166 15.1802 7.44803 15.1169C6.60414 15.0817 5.95364 14.9341 5.3383 14.6387C4.38892 14.1816 4.00565 13.5979 4.2764 13.0072C4.39595 12.747 4.57176 12.5606 4.91987 12.3285C5.41214 12.0015 6.18922 11.7378 6.90653 11.6499C7.332 11.6007 8.36577 11.6288 8.76662 11.6991ZM16.7133 11.664C17.631 11.78 18.3026 12.0296 18.8758 12.4621C19.5263 12.9544 19.5966 13.5768 19.0656 14.1077C18.4749 14.6985 17.4306 15.0642 16.1683 15.1169C14.7583 15.1767 13.4397 14.7829 12.7716 14.1077C12.529 13.8616 12.3883 13.5909 12.3883 13.3693C12.3883 13.1443 12.529 12.8735 12.7716 12.6309C13.5452 11.8574 15.1521 11.4635 16.7133 11.664Z" fill="white"/>
<path d="M6.92058 12.8242C6.63577 12.9261 6.46699 13.2391 6.54786 13.5169C6.60412 13.7032 6.77993 13.879 6.95574 13.9283C7.13859 13.9775 8.24972 13.9775 8.43256 13.9283C8.83341 13.8158 8.99867 13.3235 8.74199 13.0141C8.56266 12.8031 8.43959 12.7714 7.71173 12.7749C7.24407 12.7749 7.02255 12.789 6.92058 12.8242Z" fill="white"/>
<path d="M15.145 12.8101C14.9974 12.8523 14.7899 13.0879 14.7583 13.2426C14.702 13.545 14.8919 13.8474 15.1837 13.9283C15.3666 13.9775 16.4777 13.9775 16.6605 13.9283C16.9559 13.8439 17.1423 13.5204 17.0614 13.2215C17.0122 13.0387 16.8399 12.8593 16.6605 12.8101C16.4918 12.7644 15.3033 12.7644 15.145 12.8101Z" fill="white"/>
</svg>
