<svg width="24" height="24" viewBox="0 0 24 24" fill="none" xmlns="http://www.w3.org/2000/svg">
<path d="M3.12132 1.70696C2.7308 1.31643 2.09763 1.31643 1.70711 1.70696C1.31658 2.09748 1.31658 2.73064 1.70711 3.12117L4.55533 5.9694C4.03809 6.40882 3.56769 6.86556 3.14546 7.31594C2.15683 8.37047 1.40207 9.42119 0.894336 10.2074C0.63985 10.6014 0.445792 10.9315 0.313971 11.1659C0.248023 11.2831 0.19754 11.3766 0.162753 11.4423C0.145357 11.4752 0.131875 11.5012 0.122338 11.5197L0.11099 11.5419L0.107539 11.5487L0.10637 11.5511L0.105925 11.552C0.105741 11.5523 0.105573 11.5527 1 11.9999L0.105573 11.5527C-0.0351909 11.8342 -0.0351909 12.1656 0.105573 12.4471L1 11.9999C0.105573 12.4471 0.105741 12.4474 0.105925 12.4478L0.10637 12.4487L0.107539 12.451L0.11099 12.4578L0.122338 12.4801C0.131875 12.4986 0.145357 12.5246 0.162753 12.5574C0.19754 12.6232 0.248023 12.7166 0.313971 12.8339C0.445792 13.0682 0.63985 13.3984 0.894336 13.7924C1.40207 14.5786 2.15683 15.6293 3.14546 16.6838C5.10448 18.7734 8.10049 20.9999 12 20.9999C14.2483 20.9999 16.1963 20.2597 17.8184 19.2324L21.2929 22.707C21.6834 23.0975 22.3166 23.0975 22.7071 22.707C23.0976 22.3164 23.0976 21.6833 22.7071 21.2927L19.4447 18.0303C19.4447 18.0303 19.4447 18.0303 19.4447 18.0303L18.0255 16.6111C18.0255 16.6111 18.0255 16.6111 18.0255 16.6111L15.2164 13.802C15.2164 13.802 15.2164 13.802 15.2164 13.802L14.4339 13.0195C14.4339 13.0195 14.4338 13.0195 14.4338 13.0195L7.63766 6.22329C7.63767 6.22329 7.63768 6.22328 7.6377 6.22327L6.18171 4.76728C6.1817 4.76729 6.18168 4.7673 6.18167 4.76731L3.12132 1.70696ZM5.97453 7.38859L8.55398 9.96804C8.2023 10.5635 8 11.2585 8 11.9999C8 14.209 9.79086 15.9999 12 15.9999C12.7416 15.9999 13.4365 15.7976 14.0318 15.4459L16.3624 17.7764C15.0829 18.5138 13.6232 18.9999 12 18.9999C8.89951 18.9999 6.39552 17.2263 4.60454 15.3159C3.71817 14.3705 3.03543 13.4212 2.57441 12.7074C2.39492 12.4294 2.25003 12.1887 2.14074 11.9999C2.25003 11.811 2.39492 11.5703 2.57441 11.2924C3.03543 10.5786 3.71817 9.62928 4.60454 8.68382C5.02281 8.23766 5.47997 7.79897 5.97453 7.38859ZM10.0676 11.4816L12.5182 13.9323C12.353 13.9764 12.1793 13.9999 12 13.9999C10.8954 13.9999 10 13.1044 10 11.9999C10 11.8205 10.0235 11.6468 10.0676 11.4816ZM21.4256 12.7074C20.9783 13.3999 20.3224 14.3141 19.4742 15.2314L20.8894 16.6465C21.8609 15.6046 22.6039 14.5693 23.1057 13.7924C23.3601 13.3984 23.5542 13.0682 23.686 12.8339C23.752 12.7166 23.8025 12.6232 23.8372 12.5574C23.8546 12.5246 23.8681 12.4986 23.8777 12.4801L23.889 12.4578L23.8925 12.451L23.8936 12.4487L23.8941 12.4478C23.8943 12.4474 23.8944 12.4471 23 11.9999L23.8944 12.4471C24.0352 12.1656 24.0352 11.8342 23.8944 11.5527L23 11.9999C23.8944 11.5527 23.8943 11.5523 23.8941 11.552L23.8936 11.5511L23.8925 11.5487L23.889 11.5419L23.8777 11.5197C23.8681 11.5012 23.8546 11.4752 23.8372 11.4423C23.8025 11.3766 23.752 11.2831 23.686 11.1659C23.5542 10.9315 23.3601 10.6014 23.1057 10.2074C22.5979 9.42119 21.8432 8.37047 20.8545 7.31594C18.8955 5.22632 15.8995 2.99988 12 2.99988C10.5538 2.99988 9.23179 3.30613 8.04092 3.79806L9.60374 5.36089C10.3568 5.13121 11.1563 4.99988 12 4.99988C15.1005 4.99988 17.6045 6.77344 19.3955 8.68382C20.2818 9.62928 20.9646 10.5786 21.4256 11.2924C21.6051 11.5703 21.75 11.811 21.8593 11.9999C21.75 12.1887 21.6051 12.4294 21.4256 12.7074Z" fill="#D4D9E6"/>
</svg>
