<svg width="24" height="24" viewBox="0 0 24 24" fill="none" xmlns="http://www.w3.org/2000/svg">
<path d="M8.48578 3.33405C8.70858 2.98941 9.16012 2.89628 9.49433 3.12604L11.6761 4.62603C12.0103 4.85579 12.1007 5.32144 11.8779 5.66608L10.4233 7.91606C10.2005 8.2607 9.74897 8.35383 9.41476 8.12407C9.08056 7.89431 8.99025 7.42866 9.21305 7.08402L9.78602 6.19772C7.29293 6.87524 5.45455 9.21622 5.45455 12C5.45455 14.8545 7.38821 17.245 9.97912 17.8513C10.3708 17.9429 10.6163 18.3447 10.5274 18.7486C10.4385 19.1526 10.049 19.4057 9.65725 19.3141C6.41837 18.5562 4 15.5702 4 12C4 8.56908 6.23398 5.67624 9.28371 4.784L8.68749 4.37411C8.35329 4.14434 8.26298 3.6787 8.48578 3.33405ZM13.4726 5.25136C13.5615 4.84742 13.951 4.59426 14.3428 4.68592C17.5816 5.44382 20 8.42977 20 12C20 15.4309 17.766 18.3238 14.7163 19.216L15.3125 19.6259C15.6467 19.8557 15.737 20.3213 15.5142 20.6659C15.2914 21.0106 14.8399 21.1037 14.5057 20.874L12.3239 19.374C11.9897 19.1442 11.8993 18.6786 12.1221 18.3339L13.5767 16.0839C13.7995 15.7393 14.251 15.6462 14.5852 15.8759C14.9194 16.1057 15.0097 16.5713 14.7869 16.916L14.214 17.8023C16.7071 17.1248 18.5455 14.7838 18.5455 12C18.5455 9.14552 16.6118 6.755 14.0209 6.14872C13.6292 6.05706 13.3837 5.6553 13.4726 5.25136Z" fill="#062D4E"/>
</svg>
