<svg width="24" height="24" viewBox="0 0 24 24" fill="none" xmlns="http://www.w3.org/2000/svg">
<path d="M15.8891 5.5V6.25H14.3336V5.5H9.66688V6.25H8.11133V5.5C8.11133 5.10218 8.27522 4.72065 8.56694 4.43934C8.85866 4.15804 9.25432 4 9.66688 4H14.3336C14.7461 4 15.1418 4.15804 15.4335 4.43934C15.7252 4.72065 15.8891 5.10218 15.8891 5.5Z" fill="#F34942"/>
<path d="M18.2222 6.99998H5.77778C5.5715 6.99998 5.37367 7.079 5.22781 7.21966C5.08194 7.36031 5 7.55107 5 7.74999C5 7.9489 5.08194 8.13966 5.22781 8.28032C5.37367 8.42097 5.5715 8.49999 5.77778 8.49999H6.55556V17.5C6.55556 17.8978 6.71944 18.2794 7.01117 18.5607C7.30289 18.842 7.69855 19 8.11111 19H15.8889C16.3014 19 16.6971 18.842 16.9888 18.5607C17.2806 18.2794 17.4444 17.8978 17.4444 17.5V8.49999H18.2222C18.4285 8.49999 18.6263 8.42097 18.7722 8.28032C18.9181 8.13966 19 7.9489 19 7.74999C19 7.55107 18.9181 7.36031 18.7722 7.21966C18.6263 7.079 18.4285 6.99998 18.2222 6.99998ZM11.2222 15.25C11.2222 15.4489 11.1403 15.6397 10.9944 15.7803C10.8486 15.921 10.6507 16 10.4444 16C10.2382 16 10.0403 15.921 9.89447 15.7803C9.74861 15.6397 9.66667 15.4489 9.66667 15.25V10.75C9.66667 10.5511 9.74861 10.3603 9.89447 10.2197C10.0403 10.079 10.2382 9.99999 10.4444 9.99999C10.6507 9.99999 10.8486 10.079 10.9944 10.2197C11.1403 10.3603 11.2222 10.5511 11.2222 10.75V15.25ZM14.3333 15.25C14.3333 15.4489 14.2514 15.6397 14.1055 15.7803C13.9597 15.921 13.7618 16 13.5556 16C13.3493 16 13.1514 15.921 13.0056 15.7803C12.8597 15.6397 12.7778 15.4489 12.7778 15.25V10.75C12.7778 10.5511 12.8597 10.3603 13.0056 10.2197C13.1514 10.079 13.3493 9.99999 13.5556 9.99999C13.7618 9.99999 13.9597 10.079 14.1055 10.2197C14.2514 10.3603 14.3333 10.5511 14.3333 10.75V15.25Z" fill="#F34942"/>
</svg>
