<svg width="24" height="24" viewBox="0 0 24 24" fill="none" xmlns="http://www.w3.org/2000/svg">
<path d="M18.0971 5.60421C17.8956 5.39975 17.6545 5.24062 17.3893 5.13705C17.1241 5.03349 16.8406 4.98776 16.5571 5.0028C15.9803 5.03552 15.4372 5.29149 15.0381 5.71877L8.82214 12.0479C8.79012 12.0839 8.76411 12.125 8.74514 12.1697C8.71753 12.21 8.69407 12.2532 8.67514 12.2985L7.80014 15.2197C7.76894 15.3288 7.76357 15.4439 7.78448 15.5555C7.80538 15.6671 7.85196 15.772 7.92036 15.8615C7.98875 15.9511 8.07701 16.0227 8.17783 16.0704C8.27865 16.1182 8.38913 16.1407 8.50014 16.1361C8.56507 16.1466 8.63121 16.1466 8.69614 16.1361L11.4961 15.2984L11.6221 15.2269C11.6658 15.2074 11.706 15.1808 11.7411 15.1481L17.9501 8.79028C18.3679 8.38209 18.6181 7.82663 18.6501 7.23663C18.6775 6.93991 18.6423 6.64064 18.5469 6.35903C18.4515 6.07742 18.2981 5.82002 18.0971 5.60421V5.60421Z" fill="#053468"/>
<path d="M18.3 19.0001H5.7C5.51435 19.0001 5.3363 18.9246 5.20503 18.7904C5.07375 18.6561 5 18.474 5 18.2841C5 18.0942 5.07375 17.9121 5.20503 17.7778C5.3363 17.6435 5.51435 17.5681 5.7 17.5681H18.3C18.4857 17.5681 18.6637 17.6435 18.795 17.7778C18.9263 17.9121 19 18.0942 19 18.2841C19 18.474 18.9263 18.6561 18.795 18.7904C18.6637 18.9246 18.4857 19.0001 18.3 19.0001Z" fill="#053468"/>
</svg>
