<svg width="128" height="128" viewBox="0 0 128 128" fill="none" xmlns="http://www.w3.org/2000/svg">
<g clip-path="url(#clip0_4564_4284)">
<path d="M1.71914 76.9014C11.765 52.1232 40.0976 34.2677 73.4794 34.2677C94.8679 34.2677 114.184 41.5978 127.944 53.3822C126.627 44.6139 123.436 36.4367 118.778 29.2465C105.025 21.0228 87.7453 16.126 68.9789 16.126C42.2709 16.126 18.5739 26.0445 3.77085 41.3551C1.32998 47.9556 0 55.071 0 62.4882C0 67.4487 0.594895 72.2744 1.71914 76.9014Z" fill="#F34942"/>
<path d="M112.342 22.1795C99.6229 16.2959 84.6363 12.9008 68.5913 12.9008C43.5551 12.9008 21.0956 21.1672 5.80884 34.2558C16.4212 13.9298 38.1351 0 63.1974 0C82.9063 0 100.545 8.61438 112.342 22.1795Z" fill="#F34942"/>
<path d="M127.581 71.8554C127.863 69.2174 128 66.5011 128 63.7077C128 62.2753 127.954 60.854 127.862 59.4448C116.632 44.1677 91.5086 35.509 63.8264 39.1116C31.1725 43.361 7.04436 61.3086 5.60132 83.0087C6.69733 92.281 12.1265 100.741 20.5335 107.374C20.556 107.32 20.5785 107.266 20.6012 107.213C20.5801 107.193 20.5591 107.173 20.5381 107.154C30.8464 79.9974 60.4776 61.2596 94.3846 63.0032C105.672 63.5838 116.256 66.3731 125.632 70.8723C126.288 71.1918 126.938 71.5195 127.581 71.8554Z" fill="#F34942"/>
<path d="M24.1167 112.139C33.4294 84.2892 61.5323 64.857 93.6802 66.5101C105.778 67.1324 117.002 70.6658 126.639 76.3586C120.062 105.025 94.6756 126.363 64.2863 126.363C49.1076 126.363 35.1403 121.04 24.1167 112.139Z" fill="#F34942"/>
<path d="M116.131 100.182C69.5993 158.785 5.1886 112.12 1.03735 73.7528C9.40903 62.4943 38.2949 42.7323 66.8347 62.3244C73.0615 65.9979 83.5019 76.6916 88.7325 78.2429C84.4774 68.2428 95.2707 58.0377 103.781 58.3447C125.886 59.1423 126.133 87.5847 116.131 100.182Z" fill="#2B5484"/>
<path d="M54.7681 59.7668C30.4958 50.9057 12.0324 65.3135 4.56396 74.1705L5.18633 77.203L5.91243 78.6051C58.5023 45.0429 85.4715 126.186 115.864 92.7243C125.822 70.4502 112.233 61.6481 104.454 61.8833C93.4586 60.8754 88.2419 74.4962 92.525 79.7227C96.9853 85.1652 101.964 79.1091 100.616 76.6902C99.5256 74.7343 99.786 73.6329 100.305 73.1626C102.587 71.55 103.762 74.5736 103.831 75.9847C104.246 88.4823 92.525 85.7699 89.5169 82.0319C72.5056 74.2802 67.2155 63.0926 54.7681 59.7668Z" fill="#FDFFFB"/>
<path d="M42.9434 66.7002C27.5917 64.4425 11.3756 72.7474 5.18652 77.182L6 80C7.45219 78.1858 19.9159 71.5412 27.3842 70.7319C53.4199 67.9098 76.4474 93.0059 87.7537 98.8515C96.7988 103.528 105.284 101.338 108.396 99.6578C110.159 98.7058 119.887 93.1913 118.146 81.0122C116.968 72.7688 109.225 69.4293 104.558 70.1271C96.4669 71.3366 97.8153 77.8081 100.616 78.816C100.927 78.0097 100.823 77.3042 100.823 77.3042C100.823 76.901 100.652 76.7174 100.616 76.5987C99.7862 75.2885 99.064 72.7688 101.861 72.7688C104.765 73.5751 108.292 77.5058 108.396 81.6169C109.122 89.6799 102.172 94.7193 89.8283 91.4941C78.7462 88.5984 62.133 69.5222 42.9434 66.7002Z" fill="#95CADE"/>
<path d="M108.499 100.023C105.387 101.722 96.9025 103.938 87.8575 99.2077C84.9564 97.6902 81.2834 94.891 76.986 91.6154C64.5355 82.1258 46.8429 68.6409 27.4879 70.7631C20.0196 71.5819 7.45219 78.1649 6 80C11.5 96 20.5964 105.823 30.1556 112.841C32.3909 110.867 36.2934 106.274 37.5887 100.357C38.9994 93.9133 36.1712 88.9042 34.5806 87.2049C32.6445 85.3359 27.7346 82.0666 23.5855 83.9424C18.3992 86.2873 18.8141 91.283 19.1253 92.4045C19.4365 93.5261 21.1998 95.9728 22.8594 95.667C24.519 95.361 25.2451 94.6475 25.6601 93.3221C25.992 92.2618 27.1122 92.2687 27.6309 92.4045C34.062 96.7884 16.4284 105.148 15.4947 91.283C14.7055 79.5614 26.0403 79.5926 31.4688 81.0879C40.5139 71.0557 48.9988 78.4031 52.1106 83.3308C64.6409 81.6997 68.6033 91.419 69.0182 96.4826C74.2461 96.8089 77.4202 102.124 78.3537 104.741C85.0645 110.493 97.4332 110.115 103.399 109.032C108.422 104.669 112.563 99.5084 115.449 93.7851C112.13 98.067 109.364 99.6566 108.499 100.023Z" fill="#3A4573"/>
<path d="M97.4016 113.587C87.8732 114.274 81.4406 111.007 79.5984 109.328C80.0318 113.019 78.3717 119.037 77.1589 122.261C84.4566 120.581 91.3572 117.594 97.4016 113.587Z" fill="#3A4573"/>
<path d="M72.7911 123.101C79.7965 109.456 72.6882 100.577 69.0181 99.9482C69.7224 107.487 64.6962 118.731 61.7148 123.777C65.4443 123.901 69.1544 123.664 72.7911 123.101Z" fill="#3A4573"/>
<path d="M57.4158 123.475C60.5278 119.832 65.6455 110.677 65.4914 99.5412C65.3254 87.5517 57.8155 86.0496 54.0813 86.7972C56.0524 90.4675 56.0522 98.8276 54.6 105.454C53.5048 110.452 49.4615 117.806 47.0901 121.366C50.5027 122.406 53.9587 123.1 57.4158 123.475Z" fill="#3A4573"/>
<path d="M43.2552 120.041C48.0708 112.911 55.7255 97.0185 50.2433 86.7966C44.6005 76.2752 37.4504 79.6939 34.5804 82.7186C44.1234 89.0396 41.219 101.988 40.1817 105.454C39.3988 108.071 35.625 112.649 33.3716 115.041C36.5788 117.08 39.8873 118.738 43.2552 120.041Z" fill="#3A4573"/>
<path d="M78.5311 104.684C85.6761 110.809 98.5004 109.884 103.935 108.659C103.021 109.56 102.486 110.067 101.339 111.007C99.5441 112.319 98.7334 112.765 97.2886 113.559C87.236 114.539 81.6814 111.013 79.7775 109.278C80.2758 113.524 78.3189 119.717 77.1418 122.337C75.3618 122.813 74.3312 122.966 72.4687 123.154C80.465 108.863 72.9579 100.533 69.1847 99.8866C69.9323 107.889 64.749 119.241 61.876 123.767C60.1263 123.777 59.1753 123.698 57.5142 123.46C60.4914 120.466 65.8201 111.483 65.654 99.4782C65.4878 87.4739 57.969 85.9699 54.2304 86.7186C56.2035 90.3933 56.2035 98.7637 54.7497 105.399C53.5865 110.707 49.6218 118.152 47.3371 121.419C45.7606 121.064 44.8576 120.78 43.183 119.99C47.9601 113.185 56.0374 97.2529 50.3879 86.7186C44.7385 76.1841 37.5799 79.607 34.7068 82.6355C44.261 88.9643 41.353 101.928 40.3145 105.399C39.4839 108.175 35.9136 112.946 33.7328 115.192C32.3615 114.386 31.59 113.898 30.2019 112.844C32.2789 111.211 36.3061 106.746 37.7184 100.295C39.1308 93.8436 36.299 88.828 34.7068 87.1268C32.7681 85.2553 27.8527 81.9822 23.6986 83.8604C18.5062 86.2082 18.9216 91.2099 19.2331 92.3328C19.5447 93.4556 21.3102 95.9055 22.9717 95.5993C24.6334 95.293 25.3603 94.5786 25.7756 93.2514C26.108 92.1899 27.2295 92.1968 27.7487 92.3328C34.1873 96.7221 16.533 105.093 15.5983 91.2099C14.8081 79.4738 26.1563 79.505 31.5912 81.0021C40.6469 70.9576 49.1418 78.3141 52.2571 83.2478C64.8022 81.6147 68.7693 91.3461 69.1847 96.4159C74.4188 96.7425 77.5966 102.064 78.5311 104.684Z" fill="#93CBDF"/>
</g>
<defs>
<clipPath id="clip0_4564_4284">
<rect width="128" height="128" fill="white"/>
</clipPath>
</defs>
</svg>
